<?xml version="1.0" encoding="UTF-8"?>
<svg id="Layer_1" xmlns="http://www.w3.org/2000/svg" version="1.1" viewBox="0 0 32 32">
  <!-- Generator: Adobe Illustrator 29.7.1, SVG Export Plug-In . SVG Version: 2.1.1 Build 8)  -->
  <defs>
    <style>
      .st0 {
        fill: #e63946;
      }

      .st1 {
        fill: #d5d5d5;
      }
    </style>
  </defs>
  <path class="st0" d="M30.6,10.1c-.8-1.8-1.9-3.4-3.3-4.7-.8-.8-1.7-1.5-2.7-2l-2.4,5.7c.1.1.2.2.4.3.8.8,1.4,1.8,1.9,2.9.5,1.1.7,2.4.7,3.7s-.2,2.6-.7,3.7c-.5,1.1-1.1,2.1-1.9,2.9-.8.8-1.8,1.5-2.9,1.9-1.1.4-2.3.7-3.6.7s-.6,0-.9,0l-2.3,5.4c1,.2,2.1.3,3.2.3,2.3,0,4.3-.4,6.2-1.1,1.9-.7,3.6-1.8,5-3.1,1.4-1.3,2.5-2.9,3.3-4.7.8-1.8,1.2-3.8,1.2-5.9s-.4-4.2-1.2-5.9ZM9.6,9.3c.8-.8,1.8-1.5,2.9-1.9,1.1-.4,2.3-.7,3.6-.7s.6,0,.9,0l2.3-5.5c-1-.2-2.1-.3-3.2-.3-2.3,0-4.3.4-6.3,1.1-1.9.7-3.6,1.8-5,3.1-1.4,1.3-2.5,2.9-3.3,4.7-.8,1.8-1.2,3.8-1.2,5.9s.4,4.1,1.2,5.9c.8,1.8,1.9,3.4,3.3,4.7.8.8,1.7,1.5,2.8,2.1l2.5-5.7c-.1-.1-.2-.2-.4-.3-.8-.8-1.4-1.8-1.9-2.9-.5-1.1-.7-2.4-.7-3.7s.2-2.6.7-3.7c.5-1.1,1.1-2.1,1.9-2.9Z"/>
  <path class="st1" d="M21.2,15.8c0-2.7-2.3-5-5.1-5.1-3,0-5.5,2.4-5.4,5.4,0,2.7,2.3,5,5.1,5.1,3,0,5.5-2.4,5.4-5.4ZM17.5,15.9c-.9,0-1.7-.8-1.7-1.7s.8-1.7,1.7-1.7,1.7.8,1.7,1.7-.8,1.7-1.7,1.7Z"/>
</svg>