<?xml version="1.0" encoding="UTF-8"?>
<svg id="Layer_2" data-name="Layer 2" xmlns="http://www.w3.org/2000/svg" viewBox="0 0 96 96">
  <defs>
    <style>
      .cls-1 {
        fill: #e63946;
      }

      .cls-2 {
        fill: none;
      }

      .cls-3 {
        fill: #d5d5d5;
      }
    </style>
  </defs>
  <g id="Layer_1-2" data-name="Layer 1">
    <rect class="cls-2" width="96" height="96"/>
    <path class="cls-1" d="M91.54,30.56c-2.39-5.38-5.68-10.16-9.86-14.05-2.39-2.39-5.08-4.48-8.07-5.98l-7.17,17.04c.3.3.6.6,1.2.9,2.39,2.39,4.18,5.38,5.68,8.67s2.09,7.17,2.09,11.06-.6,7.77-2.09,11.06-3.29,6.28-5.68,8.67-5.38,4.48-8.67,5.68-6.88,2.09-10.76,2.09-1.79,0-2.69,0l-6.88,16.14c2.99.6,6.28.9,9.57.9,6.88,0,12.85-1.2,18.53-3.29,5.68-2.09,10.76-5.38,14.95-9.27,4.18-3.89,7.47-8.67,9.86-14.05,2.39-5.38,3.59-11.36,3.59-17.64s-1.2-12.55-3.59-17.64v-.3ZM28.77,28.17c2.39-2.39,5.38-4.48,8.67-5.68,3.29-1.2,6.88-2.09,10.76-2.09s1.79,0,2.69,0l6.88-16.44c-2.99-.6-6.28-.9-9.57-.9-6.88,0-12.85,1.2-18.83,3.29-5.68,2.09-10.76,5.38-14.95,9.27s-7.47,8.67-9.86,14.05c-2.39,5.38-3.59,11.36-3.59,17.64s1.2,12.26,3.59,17.64c2.39,5.38,5.68,10.16,9.86,14.05,2.39,2.39,5.08,4.48,8.37,6.28l7.47-17.04c-.3-.3-.6-.6-1.2-.9-2.39-2.39-4.18-5.38-5.68-8.67-1.49-3.29-2.09-7.17-2.09-11.06s.6-7.77,2.09-11.06c1.49-3.29,3.29-6.28,5.68-8.67l-.3.3Z"/>
    <path class="cls-3" d="M63.44,47.6c0-8.07-6.88-14.95-15.25-15.25-8.97,0-16.44,7.17-16.14,16.14,0,8.07,6.88,14.95,15.25,15.25,8.97,0,16.44-7.17,16.14-16.14ZM52.38,47.9c-2.69,0-5.08-2.39-5.08-5.08s2.39-5.08,5.08-5.08,5.08,2.39,5.08,5.08-2.39,5.08-5.08,5.08Z"/>
  </g>
</svg>