<?xml version="1.0" encoding="UTF-8"?>
<svg id="Layer_1" xmlns="http://www.w3.org/2000/svg" version="1.1" viewBox="0 0 94 35">
  <!-- Generator: Adobe Illustrator 29.7.1, SVG Export Plug-In . SVG Version: 2.1.1 Build 8)  -->
  <defs>
    <style>
      .st0 {
        fill: #e63946;
      }

      .st1 {
        fill: #d5d5d5;
      }
    </style>
  </defs>
  <g>
    <path class="st0" d="M0,20.7V.5h8.6c2.8,0,5,.7,6.6,1.9,1.6,1.3,2.3,3.1,2.3,5.4s-.4,2.8-1.1,3.9c-.7,1.1-1.7,1.9-3,2.5-1.3.6-2.9.9-4.7.9H2.7l2.1-2.1v7.7H0ZM4.8,13.6l-2.1-2.2h5.9c1.4,0,2.5-.3,3.2-.9.7-.6,1.1-1.5,1.1-2.6s-.4-2-1.1-2.6c-.7-.6-1.8-.9-3.2-.9H2.7l2.1-2.2v11.5ZM12.9,20.7l-5.1-7.3h5l5.1,7.3h-5.1Z"/>
    <path class="st0" d="M20.7,20.7L29.7.5h4.6l9,20.2h-4.9L31,2.9h1.8l-7.4,17.9h-4.8ZM25.2,16.4l1.2-3.6h10.4l1.3,3.6h-12.9Z"/>
    <path class="st0" d="M47.5,20.7L38.8.5h5.1l7.6,17.9h-3L56.2.5h4.7l-8.8,20.2h-4.6Z"/>
    <path class="st0" d="M83.1,6.5c-.6-1.3-1.3-2.4-2.3-3.3-.6-.5-1.2-1-1.9-1.4l-1.7,4c0,0,.2.2.2.2.6.6,1,1.3,1.3,2.1.3.8.5,1.7.5,2.6s-.2,1.8-.5,2.6c-.3.8-.8,1.5-1.3,2.1-.6.6-1.2,1-2,1.3-.8.3-1.6.5-2.5.5s-.4,0-.6,0l-1.6,3.8c.7.1,1.5.2,2.3.2,1.6,0,3-.3,4.4-.8,1.3-.5,2.5-1.2,3.5-2.2,1-.9,1.8-2,2.3-3.3.6-1.3.8-2.7.8-4.2s-.3-2.9-.8-4.2ZM68.3,6c.6-.6,1.2-1,2-1.3.8-.3,1.6-.5,2.5-.5s.4,0,.6,0l1.6-3.8c-.7-.1-1.5-.2-2.2-.2-1.6,0-3,.3-4.4.8-1.3.5-2.5,1.3-3.5,2.2-1,.9-1.8,2.1-2.3,3.3-.5,1.3-.8,2.7-.8,4.2s.3,2.9.8,4.2c.5,1.3,1.3,2.4,2.3,3.3.6.6,1.2,1,1.9,1.4l1.7-4c0,0-.2-.2-.2-.2-.6-.6-1-1.3-1.3-2.1-.3-.8-.5-1.7-.5-2.6s.2-1.8.5-2.6c.3-.8.8-1.5,1.3-2.1Z"/>
  </g>
  <g>
    <path class="st1" d="M0,34.8v-9.9h4.3c1.1,0,2,.2,2.8.6.8.4,1.4,1,1.9,1.7.5.7.7,1.6.7,2.6s-.2,1.9-.7,2.6c-.5.7-1.1,1.3-1.9,1.7-.8.4-1.8.6-2.8.6H0ZM1.9,33.2h2.4c.7,0,1.4-.1,1.9-.4.5-.3,1-.7,1.3-1.2.3-.5.4-1.1.4-1.8s-.1-1.3-.4-1.8c-.3-.5-.7-.9-1.3-1.2-.5-.3-1.2-.4-1.9-.4H1.9v6.8Z"/>
    <path class="st1" d="M17.4,34.8v-9.9h7.2v1.5h-5.4v6.8h5.6v1.5h-7.4ZM19.1,30.5v-1.5h4.9v1.5h-4.9Z"/>
    <path class="st1" d="M35.6,34.9c-.8,0-1.5-.1-2.2-.3-.7-.2-1.3-.5-1.7-.9l.6-1.4c.4.3.9.6,1.5.8.6.2,1.2.3,1.8.3s.9,0,1.3-.2c.3-.1.6-.3.7-.5.2-.2.2-.4.2-.7s-.1-.5-.3-.7c-.2-.2-.5-.3-.8-.4-.3-.1-.7-.2-1.1-.3-.4,0-.8-.2-1.3-.3-.4-.1-.8-.3-1.1-.5-.3-.2-.6-.5-.8-.8-.2-.3-.3-.8-.3-1.3s.1-1,.4-1.5c.3-.4.7-.8,1.3-1.1.6-.3,1.3-.4,2.2-.4s1.2,0,1.8.2c.6.2,1.1.4,1.5.7l-.6,1.4c-.4-.3-.9-.5-1.4-.6-.5-.1-.9-.2-1.4-.2s-.9,0-1.2.2c-.3.1-.5.3-.7.5-.1.2-.2.4-.2.7s.1.5.3.7.5.3.8.4c.3.1.7.2,1.2.3.4,0,.8.2,1.3.3.4.1.8.3,1.1.5.3.2.6.5.8.8.2.3.3.8.3,1.3s-.1,1-.4,1.5c-.3.4-.7.8-1.3,1.1-.6.3-1.3.4-2.2.4Z"/>
    <path class="st1" d="M47.1,34.8v-9.9h1.8v9.9h-1.8Z"/>
    <path class="st1" d="M61.8,34.9c-.8,0-1.5-.1-2.1-.4-.6-.2-1.2-.6-1.7-1.1-.5-.5-.9-1-1.1-1.6-.3-.6-.4-1.3-.4-2s.1-1.4.4-2c.3-.6.6-1.2,1.1-1.6.5-.5,1.1-.8,1.7-1.1.7-.2,1.4-.4,2.1-.4s1.6.1,2.3.4c.7.3,1.2.7,1.7,1.2l-1.2,1.1c-.4-.4-.8-.7-1.3-.9-.4-.2-.9-.3-1.5-.3s-1,0-1.4.3c-.4.2-.8.4-1.1.7-.3.3-.6.7-.7,1.1-.2.4-.3.9-.3,1.4s0,1,.3,1.4c.2.4.4.8.7,1.1.3.3.7.6,1.1.7.4.2.9.3,1.4.3s1,0,1.4-.2c.5-.2.9-.4,1.3-.8l1,1.4c-.5.4-1.1.7-1.8.9-.7.2-1.4.3-2.1.3ZM65.7,33.6l-1.7-.2v-3.7h1.7v3.9Z"/>
    <path class="st1" d="M73.8,34.8v-9.9h1.5l6.2,7.6h-.7v-7.6h1.8v9.9h-1.5l-6.2-7.6h.7v7.6h-1.8Z"/>
  </g>
  <path class="st1" d="M76.5,10.5c0-1.9-1.6-3.5-3.6-3.6-2.1,0-3.9,1.7-3.8,3.8,0,1.9,1.6,3.5,3.6,3.6,2.1,0,3.9-1.7,3.8-3.8ZM73.9,10.6c-.7,0-1.2-.5-1.2-1.2s.5-1.2,1.2-1.2,1.2.5,1.2,1.2-.5,1.2-1.2,1.2Z"/>
</svg>