<?xml version="1.0" encoding="UTF-8"?>
<svg id="Layer_2" data-name="Layer 2" xmlns="http://www.w3.org/2000/svg" viewBox="0 0 75.86 31.39">
  <defs>
    <style>
      .cls-1 {
        fill: #fff;
      }

      .cls-2 {
        fill: #e63946;
      }

      .cls-3 {
        fill: #6c6c6c;
      }
    </style>
  </defs>
  <g id="Layer_1-2" data-name="Layer 1">
    <g>
      <g>
        <path class="cls-2" d="M0,18.58V.28h7.82c2.54,0,4.52.59,5.93,1.76,1.41,1.18,2.12,2.8,2.12,4.88,0,1.36-.32,2.53-.97,3.52-.64.98-1.56,1.74-2.74,2.26-1.19.52-2.6.78-4.24.78H2.35l1.88-1.86v6.95H0ZM4.24,12.09l-1.88-1.99h5.33c1.31,0,2.28-.28,2.93-.85.64-.57.97-1.35.97-2.34s-.32-1.79-.97-2.35c-.64-.56-1.62-.84-2.93-.84H2.35l1.88-2.01v10.38ZM11.63,18.58l-4.57-6.64h4.52l4.63,6.64h-4.57Z"/>
        <path class="cls-2" d="M18.61,18.58L26.77.28h4.18l8.18,18.3h-4.44L28,2.42h1.67l-6.72,16.16h-4.34ZM22.69,14.66l1.12-3.22h9.41l1.15,3.22h-11.69Z"/>
        <path class="cls-2" d="M42.93,18.58L35.03.28h4.57l6.9,16.21h-2.69L50.82.28h4.21l-7.92,18.3h-4.18Z"/>
        <path class="cls-2" d="M75.1,5.69c-.51-1.14-1.21-2.14-2.1-2.99-.52-.5-1.1-.93-1.73-1.3l-1.55,3.62c.08.07.15.14.22.21.51.52.92,1.14,1.2,1.86.29.71.43,1.51.43,2.38s-.14,1.66-.43,2.38c-.29.71-.69,1.33-1.22,1.86-.52.52-1.13.92-1.82,1.2-.69.28-1.44.42-2.26.42-.18,0-.36,0-.54-.02l-1.48,3.46c.66.11,1.34.17,2.05.17,1.43,0,2.75-.24,3.96-.71,1.21-.47,2.27-1.13,3.16-1.97.9-.85,1.6-1.85,2.1-3.01.5-1.16.76-2.42.76-3.78s-.25-2.64-.76-3.78ZM61.77,5.23c.52-.52,1.13-.92,1.82-1.2.69-.28,1.44-.42,2.26-.42.18,0,.36,0,.54.02l1.48-3.46c-.65-.11-1.32-.17-2.03-.17-1.43,0-2.75.24-3.97.71-1.22.47-2.28,1.13-3.19,1.99-.91.85-1.61,1.86-2.1,3.01-.5,1.15-.75,2.41-.75,3.76s.25,2.61.75,3.76c.5,1.15,1.19,2.15,2.09,3.01.53.5,1.11.94,1.75,1.31l1.56-3.63c-.08-.07-.15-.14-.22-.21-.51-.52-.92-1.14-1.2-1.87-.29-.72-.43-1.51-.43-2.37s.14-1.66.43-2.38c.29-.71.69-1.33,1.22-1.86Z"/>
      </g>
      <g>
        <path class="cls-3" d="M0,31.26v-8.96h3.92c.97,0,1.83.19,2.56.56.73.38,1.31.9,1.71,1.56.41.67.61,1.45.61,2.35s-.2,1.68-.61,2.35c-.41.67-.98,1.19-1.71,1.57-.73.38-1.59.56-2.56.56H0ZM1.66,29.85h2.18c.67,0,1.25-.13,1.74-.38.49-.26.88-.61,1.15-1.07.27-.46.4-1,.4-1.61s-.13-1.16-.4-1.62c-.27-.46-.65-.81-1.15-1.07-.49-.26-1.07-.38-1.74-.38H1.66v6.14Z"/>
        <path class="cls-3" d="M15.68,31.26v-8.96h6.54v1.39h-4.88v6.17h5.05v1.39h-6.72ZM17.21,27.39v-1.37h4.45v1.37h-4.45Z"/>
        <path class="cls-3" d="M32.13,31.39c-.7,0-1.37-.1-2.01-.3-.64-.2-1.15-.46-1.52-.77l.58-1.29c.36.28.8.52,1.33.7.53.19,1.07.28,1.63.28.47,0,.85-.05,1.14-.15.29-.1.5-.24.64-.42.14-.17.2-.37.2-.6,0-.27-.1-.49-.29-.66-.2-.17-.45-.3-.76-.4-.31-.1-.66-.19-1.04-.28-.38-.09-.76-.19-1.14-.3-.38-.12-.73-.26-1.04-.45-.31-.18-.57-.43-.76-.74-.2-.31-.29-.7-.29-1.18s.13-.93.39-1.34c.26-.41.66-.73,1.19-.97.53-.24,1.21-.36,2.03-.36.54,0,1.07.07,1.6.2.53.14.99.33,1.38.59l-.52,1.29c-.4-.24-.81-.42-1.24-.53-.43-.12-.84-.17-1.23-.17-.46,0-.83.06-1.12.17-.29.11-.49.26-.63.44-.13.18-.2.38-.2.61,0,.27.1.49.29.66s.44.3.76.39c.31.09.66.19,1.04.28.38.09.77.19,1.15.3.38.11.73.26,1.04.44.31.18.56.42.76.73.19.31.29.7.29,1.16s-.13.92-.39,1.32c-.26.41-.66.73-1.2.97-.54.24-1.22.36-2.03.36Z"/>
        <path class="cls-3" d="M42.51,31.26v-8.96h1.66v8.96h-1.66Z"/>
        <path class="cls-3" d="M55.89,31.39c-.7,0-1.34-.11-1.93-.34-.58-.23-1.09-.55-1.53-.96-.44-.41-.77-.9-1.01-1.47-.24-.56-.36-1.18-.36-1.84s.12-1.28.36-1.84c.24-.56.58-1.05,1.02-1.47.44-.41.95-.73,1.54-.96.59-.23,1.23-.34,1.93-.34.76,0,1.44.12,2.05.37.61.25,1.12.61,1.54,1.09l-1.05,1.02c-.35-.35-.73-.61-1.13-.77-.41-.17-.85-.25-1.34-.25s-.9.08-1.31.23c-.4.15-.75.37-1.04.65-.29.28-.51.61-.67,1-.16.38-.24.81-.24,1.27s.08.87.24,1.25c.16.38.38.72.67,1,.29.29.63.51,1.02.66.39.15.83.23,1.31.23.44,0,.87-.07,1.29-.21.41-.14.81-.38,1.18-.71l.95,1.24c-.47.38-1.01.66-1.63.85-.62.19-1.24.29-1.87.29ZM59.39,30.25l-1.57-.22v-3.35h1.57v3.57Z"/>
        <path class="cls-3" d="M66.69,31.26v-8.96h1.37l5.62,6.9h-.68v-6.9h1.65v8.96h-1.37l-5.62-6.9h.68v6.9h-1.65Z"/>
      </g>
      <path class="cls-3" d="M65.96,6.11c-1.92-.06-3.49,1.51-3.43,3.43.06,1.74,1.47,3.16,3.21,3.21,1.92.06,3.49-1.51,3.43-3.43-.06-1.74-1.47-3.16-3.21-3.21Z"/>
      <circle class="cls-1" cx="66.79" cy="8.34" r="1.08"/>
    </g>
  </g>
</svg>